<?xml version="1.0" encoding="UTF-8" standalone="no"?>
<!-- Created with Inkscape (http://www.inkscape.org/) -->

<svg
   xmlns:dc="http://purl.org/dc/elements/1.1/"
   xmlns:cc="http://creativecommons.org/ns#"
   xmlns:rdf="http://www.w3.org/1999/02/22-rdf-syntax-ns#"
   xmlns:svg="http://www.w3.org/2000/svg"
   xmlns="http://www.w3.org/2000/svg"
   xmlns:sodipodi="http://sodipodi.sourceforge.net/DTD/sodipodi-0.dtd"
   xmlns:inkscape="http://www.inkscape.org/namespaces/inkscape"
   width="456.60022"
   height="429.60022"
   id="svg2"
   version="1.1"
   inkscape:version="0.48.5 r10040"
   sodipodi:docname="Home_with_colors.svg">
  <defs
     id="defs4" />
  <sodipodi:namedview
     id="base"
     pagecolor="#ffffff"
     bordercolor="#666666"
     borderopacity="1.0"
     inkscape:pageopacity="0.0"
     inkscape:pageshadow="2"
     inkscape:zoom="1"
     inkscape:cx="234.15193"
     inkscape:cy="221.19607"
     inkscape:document-units="px"
     inkscape:current-layer="layer1"
     showgrid="false"
     showborder="false"
     inkscape:object-paths="false"
     inkscape:window-width="1366"
     inkscape:window-height="702"
     inkscape:window-x="0"
     inkscape:window-y="27"
     inkscape:window-maximized="1"
     fit-margin-top="0"
     fit-margin-left="0"
     fit-margin-right="0"
     fit-margin-bottom="0" />
  <metadata
     id="metadata7">
    <rdf:RDF>
      <cc:Work
         rdf:about="">
        <dc:format>image/svg+xml</dc:format>
        <dc:type
           rdf:resource="http://purl.org/dc/dcmitype/StillImage" />
        <dc:title />
      </cc:Work>
    </rdf:RDF>
  </metadata>
  <g
     inkscape:label="Layer 1"
     inkscape:groupmode="layer"
     id="layer1"
     transform="translate(341.30011,-381.06207)">
    <path
       style="fill:none;stroke:#000000;stroke-width:4.47900009;stroke-miterlimit:4;stroke-opacity:1"
       d="m 113.06061,432.58239 0,328.77832"
       id="path3867"
       inkscape:connector-curvature="0" />
    <path
       style="fill:#000000;fill-opacity:0.44313725;stroke:#000000;stroke-width:4.47900009;stroke-miterlimit:4;stroke-opacity:1"
       d="m -280.49861,808.4228 -58.562,-1e-5 0,-375.8404"
       id="path3875"
       inkscape:connector-curvature="0" />
    <path
       style="fill:none;stroke:#000000;stroke-width:4.47900009;stroke-miterlimit:4;stroke-opacity:1"
       d="m -279.4986,808.42279 -1.00001,1e-5"
       id="path3873"
       inkscape:connector-curvature="0" />
    <path
       style="opacity:0.44247802;fill:#1a1a1a;stroke:none"
       d="m 113.06061,432.58238 0,375.84041 -58.562009,1e-5"
       id="path3782"
       inkscape:connector-curvature="0" />
    <g
       id="g3829">
      <path
         id="path3786"
         d="m -339.06061,428.11367 0,-44.8121 0,0 452.12122,0 0,44.81211"
         style="fill:#ffcc00;stroke:#000000;stroke-width:4.47900009;stroke-miterlimit:4;stroke-opacity:1"
         inkscape:connector-curvature="0" />
      <path
         id="path3784"
         d="m -339.06061,432.58239 0,-4.46872"
         style="fill:none;stroke:#000000;stroke-width:4.47900009;stroke-miterlimit:4;stroke-opacity:1"
         inkscape:connector-curvature="0" />
      <path
         id="rect3753"
         d="m 113.06061,428.11368 0,4.4687"
         style="fill:none;stroke:#000000;stroke-width:4.47900009;stroke-miterlimit:4;stroke-opacity:1"
         inkscape:connector-curvature="0" />
      <path
         sodipodi:open="true"
         sodipodi:end="6.274941"
         sodipodi:start="0"
         d="m -295,405.36218 c 0,10.49341 -8.50659,19 -19,19 -10.49341,0 -19,-8.50659 -19,-19 0,-10.49341 8.50659,-19 19,-19 10.43229,0 18.91335,8.41143 18.99935,18.84336"
         sodipodi:ry="19"
         sodipodi:rx="19"
         sodipodi:cy="405.36218"
         sodipodi:cx="-314"
         id="path3788"
         style="fill:#ffcc00;stroke:#000000;stroke-width:4.47900009;stroke-miterlimit:4;stroke-opacity:1;stroke-dasharray:none"
         sodipodi:type="arc" />
      <text
         sodipodi:linespacing="125%"
         id="text3790"
         y="408.36218"
         x="-330"
         style="font-size:20px;font-style:normal;font-weight:normal;line-height:125%;letter-spacing:0px;word-spacing:0px;fill:#000000;fill-opacity:1;stroke:none;font-family:Sans"
         xml:space="preserve"><tspan
           y="408.36218"
           x="-330"
           id="tspan3794"
           sodipodi:role="line">aaa</tspan></text>
      <text
         sodipodi:linespacing="125%"
         id="text3798"
         y="412.36218"
         x="-268"
         style="font-size:20px;font-style:normal;font-weight:normal;line-height:125%;letter-spacing:0px;word-spacing:0px;fill:#000000;fill-opacity:1;stroke:none;font-family:Sans"
         xml:space="preserve"><tspan
           y="412.36218"
           x="-268"
           id="tspan3800"
           sodipodi:role="line">New Post</tspan></text>
      <path
         id="rect3802"
         d="m -158.53125,389.8125 0,2.0625 0,27 0,2.03125 2.03125,0 108.46875,0 2.03125,0 0,-2.03125 0,-27 0,-2.0625 -2.03125,0 -108.46875,0 -2.03125,0 z m 4.0625,4.09375 78.21875,0 0,22.90625 -78.21875,0 0,-22.90625 z m 82.71875,0 21.6875,0 0,22.90625 -21.6875,0 0,-22.90625 z M -58,397.375 c -3.307786,0 -6,2.69221 -6,6 0,0.65467 0.117686,1.28466 0.3125,1.875 l -4.90625,7.59375 -0.1875,0.28125 0.25,0.15625 4.6875,3.03125 0.25,0.15625 0.1875,-0.25 4.46875,-6.9375 c 0.303183,0.0474 0.621249,0.0937 0.9375,0.0937 3.307786,0 6,-2.69221 6,-6 l -1,0 c 0,2.76735 -2.232654,5 -5,5 -0.11912,0 -0.226747,-0.0231 -0.34375,-0.0312 l 0.96875,-1.46875 0.1875,-0.25 -0.28125,-0.1875 -4.6875,-3.03125 -0.21875,-0.15625 -0.1875,0.28125 -0.375,0.59375 C -62.97535,403.87636 -63,403.63444 -63,403.375 c 0,-2.76735 2.232654,-5 5,-5 2.751111,0 4.977319,2.18648 5,4.9375 l 1,0 c -0.02711,-3.28852 -2.711364,-5.9375 -6,-5.9375 z m -4.21875,6.71875 4.15625,2.71875 -0.9375,1.46875 c -1.782634,-0.3635 -3.208549,-1.69638 -3.75,-3.40625 l 0.53125,-0.78125 z m -1.1875,1.84375 c 0.746971,1.56709 2.138696,2.75882 3.84375,3.21875 l -4.21875,6.5 -4.1875,-2.71875 4.5625,-7 z"
         style="font-size:medium;font-style:normal;font-variant:normal;font-weight:normal;font-stretch:normal;text-indent:0;text-align:start;text-decoration:none;line-height:normal;letter-spacing:normal;word-spacing:normal;text-transform:none;direction:ltr;block-progression:tb;writing-mode:lr-tb;text-anchor:start;baseline-shift:baseline;color:#000000;fill:#000000;fill-opacity:1;stroke:none;stroke-width:4.08060265;marker:none;visibility:visible;display:inline;overflow:visible;enable-background:accumulate;font-family:Sans;-inkscape-font-specification:Sans"
         inkscape:connector-curvature="0" />
      <text
         sodipodi:linespacing="125%"
         id="text3821"
         y="405.22992"
         x="-149.76268"
         style="font-size:10.16869164px;font-style:normal;font-weight:normal;line-height:125%;letter-spacing:0px;word-spacing:0px;fill:#000000;fill-opacity:1;stroke:none;font-family:Sans"
         xml:space="preserve"><tspan
           y="405.22992"
           x="-149.76268"
           id="tspan3823"
           sodipodi:role="line">Search friends</tspan></text>
      <text
         sodipodi:linespacing="125%"
         id="text3825"
         y="407.73425"
         x="-6.5638709"
         style="font-size:12.92893219px;font-style:normal;font-weight:normal;line-height:125%;letter-spacing:0px;word-spacing:0px;fill:#000000;fill-opacity:1;stroke:none;font-family:Sans"
         xml:space="preserve"><tspan
           y="407.73425"
           x="-6.5638709"
           id="tspan3827"
           sodipodi:role="line">Settings | Logout</tspan></text>
    </g>
    <g
       id="g3887">
      <path
         inkscape:connector-curvature="0"
         style="opacity:0.44247814;fill:#1a1a1a;stroke:none"
         d="m 54.498601,808.4228 0,-375.84041 58.562009,-10e-6"
         id="path3885" />
    </g>
    <g
       id="g3892"
       style="fill:#000000">
      <path
         inkscape:connector-curvature="0"
         style="fill:#000000;fill-opacity:0.44313725;stroke:none"
         d="m -339.06061,432.58239 58.562,1e-5 0,375.8404"
         id="path3890" />
    </g>
    <rect
       style="opacity:0.93999999;fill:#808080;fill-opacity:1;stroke:#000000;stroke-width:4;stroke-miterlimit:4;stroke-dasharray:none"
       id="rect3896"
       width="293"
       height="91"
       x="-259"
       y="438.36218" />
    <path
       style="fill:none;stroke:#000000;stroke-width:2.5;stroke-linecap:butt;stroke-linejoin:miter;stroke-miterlimit:4;stroke-opacity:1;stroke-dasharray:none"
       d="m -251.5,450.36218 57.5,0"
       id="path3904"
       inkscape:connector-curvature="0" />
    <text
       xml:space="preserve"
       style="font-size:9.04341984px;font-style:normal;font-weight:normal;line-height:125%;letter-spacing:0px;word-spacing:0px;fill:#000000;fill-opacity:1;stroke:none;font-family:Sans"
       x="-249.56996"
       y="447.77756"
       id="text3906"
       sodipodi:linespacing="125%"><tspan
         sodipodi:role="line"
         id="tspan3908"
         x="-249.56996"
         y="447.77756">Title</tspan></text>
    <rect
       style="opacity:0.93999999;fill:#808080;fill-opacity:1;stroke:#000000;stroke-width:2.17532468;stroke-miterlimit:4;stroke-opacity:1;stroke-dasharray:none"
       id="rect3910"
       width="30.01948"
       height="31.324675"
       x="-2.2597404"
       y="443.19986" />
    <text
       xml:space="preserve"
       style="font-size:12.4212923px;font-style:normal;font-weight:normal;line-height:125%;letter-spacing:0px;word-spacing:0px;fill:#000000;fill-opacity:1;stroke:none;font-family:Sans"
       x="2.7438087"
       y="462.38794"
       id="text3912"
       sodipodi:linespacing="125%"><tspan
         sodipodi:role="line"
         id="tspan3914"
         x="2.7438087"
         y="462.38794">Img</tspan></text>
    <path
       style="fill:none;stroke:#000000;stroke-width:2.5;stroke-linecap:butt;stroke-linejoin:miter;stroke-miterlimit:4;stroke-opacity:1;stroke-dasharray:none"
       d="m -150,450.86218 118.5,0"
       id="path3916"
       inkscape:connector-curvature="0" />
    <text
       xml:space="preserve"
       style="font-size:9.74537182px;font-style:normal;font-weight:normal;line-height:125%;letter-spacing:0px;word-spacing:0px;fill:#000000;fill-opacity:1;stroke:none;font-family:Sans"
       x="-127.59512"
       y="497.34869"
       id="text3918"
       sodipodi:linespacing="125%"
       transform="scale(1.1125838,0.8988087)"><tspan
         sodipodi:role="line"
         id="tspan3920"
         x="-127.59512"
         y="497.34869">Movie link</tspan></text>
    <path
       sodipodi:type="star"
       style="opacity:0.93999999;fill:#ffcc00;fill-opacity:1;stroke:#000000;stroke-width:2.5;stroke-miterlimit:4;stroke-opacity:1;stroke-dasharray:none"
       id="path3922"
       sodipodi:sides="5"
       sodipodi:cx="-215"
       sodipodi:cy="489.36218"
       sodipodi:r1="11.768602"
       sodipodi:r2="5.8843012"
       sodipodi:arg1="-0.26179939"
       sodipodi:arg2="0.36651914"
       inkscape:flatsided="false"
       inkscape:rounded="0"
       inkscape:randomized="0"
       d="m -203.6324,486.31624 -5.87413,5.15469 0.91617,7.76123 -6.7176,-3.99374 -7.09826,3.26968 1.72242,-7.62295 -5.30314,-5.74046 7.78212,-0.7175 3.82074,-6.81748 3.08719,7.17951 z"
       inkscape:transform-center-x="-0.11330643"
       inkscape:transform-center-y="-0.56034114"
       transform="matrix(0.59532303,0,0,0.59532303,-116.00555,174.53361)" />
    <path
       transform="matrix(-0.59532303,0,0,0.59532303,-355.76784,174.53361)"
       inkscape:transform-center-y="-0.56034114"
       inkscape:transform-center-x="0.11330927"
       d="m -203.6324,486.31624 -5.87413,5.15469 0.91617,7.76123 -6.7176,-3.99374 -7.09826,3.26968 1.72242,-7.62295 -5.30314,-5.74046 7.78212,-0.7175 3.82074,-6.81748 3.08719,7.17951 z"
       inkscape:randomized="0"
       inkscape:rounded="0"
       inkscape:flatsided="false"
       sodipodi:arg2="0.36651914"
       sodipodi:arg1="-0.26179939"
       sodipodi:r2="5.8843012"
       sodipodi:r1="11.768602"
       sodipodi:cy="489.36218"
       sodipodi:cx="-215"
       sodipodi:sides="5"
       id="path3924"
       style="opacity:0.93999999;fill:#ffcc00;fill-opacity:1;stroke:#000000;stroke-width:2.5;stroke-miterlimit:4;stroke-opacity:1;stroke-dasharray:none"
       sodipodi:type="star" />
    <path
       sodipodi:type="star"
       style="opacity:0.93999999;fill:#ffcc00;fill-opacity:1;stroke:#000000;stroke-width:2.5;stroke-miterlimit:4;stroke-opacity:1;stroke-dasharray:none"
       id="path3926"
       sodipodi:sides="5"
       sodipodi:cx="-215"
       sodipodi:cy="489.36218"
       sodipodi:r1="11.768602"
       sodipodi:r2="5.8843012"
       sodipodi:arg1="-0.26179939"
       sodipodi:arg2="0.36651914"
       inkscape:flatsided="false"
       inkscape:rounded="0"
       inkscape:randomized="0"
       d="m -203.6324,486.31624 -5.87413,5.15469 0.91617,7.76123 -6.7176,-3.99374 -7.09826,3.26968 1.72242,-7.62295 -5.30314,-5.74046 7.78212,-0.7175 3.82074,-6.81748 3.08719,7.17951 z"
       inkscape:transform-center-x="-0.11330643"
       inkscape:transform-center-y="-0.56034114"
       transform="matrix(0.59532303,0,0,0.59532303,-84.50555,174.53361)" />
    <path
       inkscape:connector-curvature="0"
       style="opacity:0.93999999;fill:none;stroke:#000000;stroke-width:1.4883076;stroke-miterlimit:4;stroke-opacity:1;stroke-dasharray:none"
       d="m -196.2904,459.14593 0.15707,-0.28026 1.83788,4.27413 4.56284,0.90907 0,0 -3.497,3.0687 0.54542,4.62044 -3.58913,-2.1338"
       id="path3944" />
    <path
       inkscape:connector-curvature="0"
       style="opacity:0.93999999;fill:#f8c807;fill-opacity:0.99607843;stroke:#000000;stroke-width:1.4883076;stroke-miterlimit:4;stroke-opacity:1;stroke-dasharray:none"
       d="m -196.27332,469.60421 -0.41002,-0.24376 -4.22576,1.94652 1.0254,-4.53812 -3.15708,-3.41743 4.63288,-0.42715 2.1175,-3.77834"
       id="path3928" />
    <path
       sodipodi:type="star"
       style="opacity:0.93999999;fill:#808080;fill-opacity:1;stroke:#000000;stroke-width:2.5;stroke-miterlimit:4;stroke-opacity:1;stroke-dasharray:none"
       id="path3930"
       sodipodi:sides="5"
       sodipodi:cx="-215"
       sodipodi:cy="489.36218"
       sodipodi:r1="11.768602"
       sodipodi:r2="5.8843012"
       sodipodi:arg1="-0.26179939"
       sodipodi:arg2="0.36651914"
       inkscape:flatsided="false"
       inkscape:rounded="0"
       inkscape:randomized="0"
       d="m -203.6324,486.31624 -5.87413,5.15469 0.91617,7.76123 -6.7176,-3.99374 -7.09826,3.26968 1.72242,-7.62295 -5.30314,-5.74046 7.78212,-0.7175 3.82074,-6.81748 3.08719,7.17951 z"
       inkscape:transform-center-x="-0.11330643"
       inkscape:transform-center-y="-0.56034114"
       transform="matrix(0.59532303,0,0,0.59532303,-53.00555,174.53361)" />
    <rect
       style="opacity:0.93999999;fill:none;stroke:#000000;stroke-width:2.5;stroke-miterlimit:4;stroke-dasharray:none"
       id="rect3946"
       width="276"
       height="45.5"
       x="-248"
       y="479.36218" />
    <g
       id="g3967"
       transform="translate(0,90)">
      <rect
         style="opacity:0.93999999;fill:#808080;fill-opacity:1;stroke:#000000;stroke-width:4;stroke-miterlimit:4;stroke-dasharray:none"
         id="rect3969"
         width="293"
         height="91"
         x="-259"
         y="454.36218" />
      <path
         style="fill:none;stroke:#000000;stroke-width:2.5;stroke-linecap:butt;stroke-linejoin:miter;stroke-miterlimit:4;stroke-opacity:1;stroke-dasharray:none"
         d="m -251.5,466.36218 57.5,0"
         id="path3971"
         inkscape:connector-curvature="0" />
      <text
         xml:space="preserve"
         style="font-size:9.04341984px;font-style:normal;font-weight:normal;line-height:125%;letter-spacing:0px;word-spacing:0px;fill:#000000;fill-opacity:1;stroke:none;font-family:Sans"
         x="-249.56996"
         y="463.77756"
         id="text3973"
         sodipodi:linespacing="125%"><tspan
           sodipodi:role="line"
           id="tspan3975"
           x="-249.56996"
           y="463.77756">Title</tspan></text>
      <rect
         style="opacity:0.93999999;fill:#808080;fill-opacity:1;stroke:#000000;stroke-width:2.17532468;stroke-miterlimit:4;stroke-opacity:1;stroke-dasharray:none"
         id="rect3977"
         width="30.01948"
         height="31.324675"
         x="-2.2597404"
         y="459.19986" />
      <text
         xml:space="preserve"
         style="font-size:12.4212923px;font-style:normal;font-weight:normal;line-height:125%;letter-spacing:0px;word-spacing:0px;fill:#000000;fill-opacity:1;stroke:none;font-family:Sans"
         x="2.7438087"
         y="478.38794"
         id="text3979"
         sodipodi:linespacing="125%"><tspan
           sodipodi:role="line"
           id="tspan3981"
           x="2.7438087"
           y="478.38794">Img</tspan></text>
      <path
         style="fill:none;stroke:#000000;stroke-width:2.5;stroke-linecap:butt;stroke-linejoin:miter;stroke-miterlimit:4;stroke-opacity:1;stroke-dasharray:none"
         d="m -150,466.86218 118.5,0"
         id="path3983"
         inkscape:connector-curvature="0" />
      <text
         xml:space="preserve"
         style="font-size:9.74537182px;font-style:normal;font-weight:normal;line-height:125%;letter-spacing:0px;word-spacing:0px;fill:#000000;fill-opacity:1;stroke:none;font-family:Sans"
         x="-127.59512"
         y="515.15002"
         id="text3985"
         sodipodi:linespacing="125%"
         transform="scale(1.1125838,0.8988087)"><tspan
           sodipodi:role="line"
           id="tspan3987"
           x="-127.59512"
           y="515.15002">Movie link</tspan></text>
      <path
         sodipodi:type="star"
         style="opacity:0.93999999;fill:#ffcc00;fill-opacity:1;stroke:#000000;stroke-width:2.5;stroke-miterlimit:4;stroke-opacity:1;stroke-dasharray:none"
         id="path3989"
         sodipodi:sides="5"
         sodipodi:cx="-215"
         sodipodi:cy="489.36218"
         sodipodi:r1="11.768602"
         sodipodi:r2="5.8843012"
         sodipodi:arg1="-0.26179939"
         sodipodi:arg2="0.36651914"
         inkscape:flatsided="false"
         inkscape:rounded="0"
         inkscape:randomized="0"
         d="m -203.6324,486.31624 -5.87413,5.15469 0.91617,7.76123 -6.7176,-3.99374 -7.09826,3.26968 1.72242,-7.62295 -5.30314,-5.74046 7.78212,-0.7175 3.82074,-6.81748 3.08719,7.17951 z"
         inkscape:transform-center-x="-0.11330643"
         inkscape:transform-center-y="-0.56034114"
         transform="matrix(0.59532303,0,0,0.59532303,-116.00555,190.53361)" />
      <path
         transform="matrix(-0.59532303,0,0,0.59532303,-355.76784,190.53361)"
         inkscape:transform-center-y="-0.56034114"
         inkscape:transform-center-x="0.11330927"
         d="m -203.6324,486.31624 -5.87413,5.15469 0.91617,7.76123 -6.7176,-3.99374 -7.09826,3.26968 1.72242,-7.62295 -5.30314,-5.74046 7.78212,-0.7175 3.82074,-6.81748 3.08719,7.17951 z"
         inkscape:randomized="0"
         inkscape:rounded="0"
         inkscape:flatsided="false"
         sodipodi:arg2="0.36651914"
         sodipodi:arg1="-0.26179939"
         sodipodi:r2="5.8843012"
         sodipodi:r1="11.768602"
         sodipodi:cy="489.36218"
         sodipodi:cx="-215"
         sodipodi:sides="5"
         id="path3991"
         style="opacity:0.93999999;fill:#ffcc00;fill-opacity:1;stroke:#000000;stroke-width:2.5;stroke-miterlimit:4;stroke-opacity:1;stroke-dasharray:none"
         sodipodi:type="star" />
      <path
         sodipodi:type="star"
         style="opacity:0.93999999;fill:#ffcc00;fill-opacity:1;stroke:#000000;stroke-width:2.5;stroke-miterlimit:4;stroke-opacity:1;stroke-dasharray:none"
         id="path3993"
         sodipodi:sides="5"
         sodipodi:cx="-215"
         sodipodi:cy="489.36218"
         sodipodi:r1="11.768602"
         sodipodi:r2="5.8843012"
         sodipodi:arg1="-0.26179939"
         sodipodi:arg2="0.36651914"
         inkscape:flatsided="false"
         inkscape:rounded="0"
         inkscape:randomized="0"
         d="m -203.6324,486.31624 -5.87413,5.15469 0.91617,7.76123 -6.7176,-3.99374 -7.09826,3.26968 1.72242,-7.62295 -5.30314,-5.74046 7.78212,-0.7175 3.82074,-6.81748 3.08719,7.17951 z"
         inkscape:transform-center-x="-0.11330643"
         inkscape:transform-center-y="-0.56034114"
         transform="matrix(0.59532303,0,0,0.59532303,-84.50555,190.53361)" />
      <path
         style="opacity:0.93999999;fill:none;stroke:#000000;stroke-width:1.4883076;stroke-miterlimit:4;stroke-opacity:1;stroke-dasharray:none"
         d="m -196.2904,475.14593 0.15707,-0.28026 1.83788,4.27413 4.56284,0.90907 0,0 -3.497,3.0687 0.54542,4.62044 -3.58913,-2.1338"
         id="path3995"
         inkscape:connector-curvature="0" />
      <path
         style="opacity:0.93999999;fill:#f8c807;fill-opacity:0.99607843;stroke:#000000;stroke-width:1.4883076;stroke-miterlimit:4;stroke-opacity:1;stroke-dasharray:none"
         d="m -196.27332,485.60421 -0.41002,-0.24376 -4.22576,1.94652 1.0254,-4.53812 -3.15708,-3.41743 4.63288,-0.42715 2.1175,-3.77834"
         id="path3997"
         inkscape:connector-curvature="0" />
      <path
         sodipodi:type="star"
         style="opacity:0.93999999;fill:#808080;fill-opacity:1;stroke:#000000;stroke-width:2.5;stroke-miterlimit:4;stroke-opacity:1;stroke-dasharray:none"
         id="path3999"
         sodipodi:sides="5"
         sodipodi:cx="-215"
         sodipodi:cy="489.36218"
         sodipodi:r1="11.768602"
         sodipodi:r2="5.8843012"
         sodipodi:arg1="-0.26179939"
         sodipodi:arg2="0.36651914"
         inkscape:flatsided="false"
         inkscape:rounded="0"
         inkscape:randomized="0"
         d="m -203.6324,486.31624 -5.87413,5.15469 0.91617,7.76123 -6.7176,-3.99374 -7.09826,3.26968 1.72242,-7.62295 -5.30314,-5.74046 7.78212,-0.7175 3.82074,-6.81748 3.08719,7.17951 z"
         inkscape:transform-center-x="-0.11330643"
         inkscape:transform-center-y="-0.56034114"
         transform="matrix(0.59532303,0,0,0.59532303,-53.00555,190.53361)" />
      <rect
         style="opacity:0.93999999;fill:none;stroke:#000000;stroke-width:2.5;stroke-miterlimit:4;stroke-dasharray:none"
         id="rect4001"
         width="276"
         height="45.5"
         x="-248"
         y="495.36218" />
    </g>
    <g
       transform="translate(0,206)"
       id="g4003">
      <rect
         y="454.36218"
         x="-259"
         height="91"
         width="293"
         id="rect4005"
         style="opacity:0.93999999;fill:#808080;fill-opacity:1;stroke:#000000;stroke-width:4;stroke-miterlimit:4;stroke-dasharray:none" />
      <path
         inkscape:connector-curvature="0"
         id="path4007"
         d="m -251.5,466.36218 57.5,0"
         style="fill:none;stroke:#000000;stroke-width:2.5;stroke-linecap:butt;stroke-linejoin:miter;stroke-miterlimit:4;stroke-opacity:1;stroke-dasharray:none" />
      <text
         sodipodi:linespacing="125%"
         id="text4009"
         y="463.77756"
         x="-249.56996"
         style="font-size:9.04341984px;font-style:normal;font-weight:normal;line-height:125%;letter-spacing:0px;word-spacing:0px;fill:#000000;fill-opacity:1;stroke:none;font-family:Sans"
         xml:space="preserve"><tspan
           y="463.77756"
           x="-249.56996"
           id="tspan4011"
           sodipodi:role="line">Title</tspan></text>
      <rect
         y="459.19986"
         x="-2.2597404"
         height="31.324675"
         width="30.01948"
         id="rect4013"
         style="opacity:0.93999999;fill:#808080;fill-opacity:1;stroke:#000000;stroke-width:2.17532468;stroke-miterlimit:4;stroke-opacity:1;stroke-dasharray:none" />
      <text
         sodipodi:linespacing="125%"
         id="text4015"
         y="478.38794"
         x="2.7438087"
         style="font-size:12.4212923px;font-style:normal;font-weight:normal;line-height:125%;letter-spacing:0px;word-spacing:0px;fill:#000000;fill-opacity:1;stroke:none;font-family:Sans"
         xml:space="preserve"><tspan
           y="478.38794"
           x="2.7438087"
           id="tspan4017"
           sodipodi:role="line">Img</tspan></text>
      <path
         inkscape:connector-curvature="0"
         id="path4019"
         d="m -150,466.86218 118.5,0"
         style="fill:none;stroke:#000000;stroke-width:2.5;stroke-linecap:butt;stroke-linejoin:miter;stroke-miterlimit:4;stroke-opacity:1;stroke-dasharray:none" />
      <text
         transform="scale(1.1125838,0.8988087)"
         sodipodi:linespacing="125%"
         id="text4021"
         y="515.15002"
         x="-127.59512"
         style="font-size:9.74537182px;font-style:normal;font-weight:normal;line-height:125%;letter-spacing:0px;word-spacing:0px;fill:#000000;fill-opacity:1;stroke:none;font-family:Sans"
         xml:space="preserve"><tspan
           y="515.15002"
           x="-127.59512"
           id="tspan4023"
           sodipodi:role="line">Movie link</tspan></text>
      <path
         transform="matrix(0.59532303,0,0,0.59532303,-116.00555,190.53361)"
         inkscape:transform-center-y="-0.56034114"
         inkscape:transform-center-x="-0.11330643"
         d="m -203.6324,486.31624 -5.87413,5.15469 0.91617,7.76123 -6.7176,-3.99374 -7.09826,3.26968 1.72242,-7.62295 -5.30314,-5.74046 7.78212,-0.7175 3.82074,-6.81748 3.08719,7.17951 z"
         inkscape:randomized="0"
         inkscape:rounded="0"
         inkscape:flatsided="false"
         sodipodi:arg2="0.36651914"
         sodipodi:arg1="-0.26179939"
         sodipodi:r2="5.8843012"
         sodipodi:r1="11.768602"
         sodipodi:cy="489.36218"
         sodipodi:cx="-215"
         sodipodi:sides="5"
         id="path4025"
         style="opacity:0.93999999;fill:#ffcc00;fill-opacity:1;stroke:#000000;stroke-width:2.5;stroke-miterlimit:4;stroke-opacity:1;stroke-dasharray:none"
         sodipodi:type="star" />
      <path
         sodipodi:type="star"
         style="opacity:0.93999999;fill:#ffcc00;fill-opacity:1;stroke:#000000;stroke-width:2.5;stroke-miterlimit:4;stroke-opacity:1;stroke-dasharray:none"
         id="path4027"
         sodipodi:sides="5"
         sodipodi:cx="-215"
         sodipodi:cy="489.36218"
         sodipodi:r1="11.768602"
         sodipodi:r2="5.8843012"
         sodipodi:arg1="-0.26179939"
         sodipodi:arg2="0.36651914"
         inkscape:flatsided="false"
         inkscape:rounded="0"
         inkscape:randomized="0"
         d="m -203.6324,486.31624 -5.87413,5.15469 0.91617,7.76123 -6.7176,-3.99374 -7.09826,3.26968 1.72242,-7.62295 -5.30314,-5.74046 7.78212,-0.7175 3.82074,-6.81748 3.08719,7.17951 z"
         inkscape:transform-center-x="0.11330927"
         inkscape:transform-center-y="-0.56034114"
         transform="matrix(-0.59532303,0,0,0.59532303,-355.76784,190.53361)" />
      <path
         transform="matrix(0.59532303,0,0,0.59532303,-84.50555,190.53361)"
         inkscape:transform-center-y="-0.56034114"
         inkscape:transform-center-x="-0.11330643"
         d="m -203.6324,486.31624 -5.87413,5.15469 0.91617,7.76123 -6.7176,-3.99374 -7.09826,3.26968 1.72242,-7.62295 -5.30314,-5.74046 7.78212,-0.7175 3.82074,-6.81748 3.08719,7.17951 z"
         inkscape:randomized="0"
         inkscape:rounded="0"
         inkscape:flatsided="false"
         sodipodi:arg2="0.36651914"
         sodipodi:arg1="-0.26179939"
         sodipodi:r2="5.8843012"
         sodipodi:r1="11.768602"
         sodipodi:cy="489.36218"
         sodipodi:cx="-215"
         sodipodi:sides="5"
         id="path4029"
         style="opacity:0.93999999;fill:#ffcc00;fill-opacity:1;stroke:#000000;stroke-width:2.5;stroke-miterlimit:4;stroke-opacity:1;stroke-dasharray:none"
         sodipodi:type="star" />
      <path
         inkscape:connector-curvature="0"
         id="path4031"
         d="m -196.2904,475.14593 0.15707,-0.28026 1.83788,4.27413 4.56284,0.90907 0,0 -3.497,3.0687 0.54542,4.62044 -3.58913,-2.1338"
         style="opacity:0.93999999;fill:none;stroke:#000000;stroke-width:1.4883076;stroke-miterlimit:4;stroke-opacity:1;stroke-dasharray:none" />
      <path
         inkscape:connector-curvature="0"
         id="path4033"
         d="m -196.27332,485.60421 -0.41002,-0.24376 -4.22576,1.94652 1.0254,-4.53812 -3.15708,-3.41743 4.63288,-0.42715 2.1175,-3.77834"
         style="opacity:0.93999999;fill:#f8c807;fill-opacity:0.99607843;stroke:#000000;stroke-width:1.4883076;stroke-miterlimit:4;stroke-opacity:1;stroke-dasharray:none" />
      <path
         transform="matrix(0.59532303,0,0,0.59532303,-53.00555,190.53361)"
         inkscape:transform-center-y="-0.56034114"
         inkscape:transform-center-x="-0.11330643"
         d="m -203.6324,486.31624 -5.87413,5.15469 0.91617,7.76123 -6.7176,-3.99374 -7.09826,3.26968 1.72242,-7.62295 -5.30314,-5.74046 7.78212,-0.7175 3.82074,-6.81748 3.08719,7.17951 z"
         inkscape:randomized="0"
         inkscape:rounded="0"
         inkscape:flatsided="false"
         sodipodi:arg2="0.36651914"
         sodipodi:arg1="-0.26179939"
         sodipodi:r2="5.8843012"
         sodipodi:r1="11.768602"
         sodipodi:cy="489.36218"
         sodipodi:cx="-215"
         sodipodi:sides="5"
         id="path4035"
         style="opacity:0.93999999;fill:#808080;fill-opacity:1;stroke:#000000;stroke-width:2.5;stroke-miterlimit:4;stroke-opacity:1;stroke-dasharray:none"
         sodipodi:type="star" />
      <rect
         y="495.36218"
         x="-248"
         height="45.5"
         width="276"
         id="rect4037"
         style="opacity:0.93999999;fill:none;stroke:#000000;stroke-width:2.5;stroke-miterlimit:4;stroke-dasharray:none" />
    </g>
    <path
       style="fill:#333333;stroke:#000000;stroke-width:4.47900009;stroke-miterlimit:4;stroke-opacity:1"
       d="m 113.06061,761.36071 0,47.06209 -452.12122,0 10e-6,-47.06209"
       id="path4042"
       inkscape:connector-curvature="0" />
    <text
       xml:space="preserve"
       style="font-size:20px;font-style:normal;font-weight:normal;line-height:125%;letter-spacing:0px;word-spacing:0px;fill:#000000;fill-opacity:1;stroke:none;font-family:Sans"
       x="-240"
       y="779.36218"
       id="text4044"
       sodipodi:linespacing="125%"><tspan
         sodipodi:role="line"
         id="tspan4046"
         x="-240"
         y="779.36218">This site is under devlopment</tspan></text>
    <text
       xml:space="preserve"
       style="font-size:20px;font-style:normal;font-weight:normal;line-height:125%;letter-spacing:0px;word-spacing:0px;fill:#000000;fill-opacity:1;stroke:none;font-family:Sans"
       x="-213"
       y="799.36218"
       id="text4048"
       sodipodi:linespacing="125%"><tspan
         sodipodi:role="line"
         id="tspan4050"
         x="-213"
         y="799.36218">Contact me at @mail:</tspan></text>
    <path
       inkscape:connector-curvature="0"
       id="path3080"
       d="m -150,467.86218 118.5,0"
       style="fill:none;stroke:#000000;stroke-width:2.5;stroke-linecap:butt;stroke-linejoin:miter;stroke-miterlimit:4;stroke-opacity:1;stroke-dasharray:none" />
    <text
       transform="scale(1.1125838,0.8988087)"
       sodipodi:linespacing="125%"
       id="text3082"
       y="515.15002"
       x="-127.59512"
       style="font-size:9.74537182px;font-style:normal;font-weight:normal;line-height:125%;letter-spacing:0px;word-spacing:0px;fill:#000000;fill-opacity:1;stroke:none;font-family:Sans"
       xml:space="preserve"><tspan
         y="515.15002"
         x="-127.59512"
         id="tspan3084"
         sodipodi:role="line">From User</tspan></text>
  </g>
</svg>
